# xmcd
#
# Track frame offsets:
#	182
#	12827
#	32715
#	54225
#	100942
#	116662
#
# Disc length: 1862
#
# Revision: 4
# Processed by: cddbd v1.5.1PL0 Copyright (c) Steve Scherf et al.
# Submitted via: OrangeCD 5.2
# Normalized: r3:DSETVAR1,TDELIM( - ),TSWAP
#
DISCID=41074406
DTITLE=Various Artist - Blues Collection - Volume Two
DYEAR=1900
DGENRE=Blues
TTITLE0=Memphis Slim - Roll Em Slim
TTITLE1=John Lee Hooker - Dazie Mae
TTITLE2=Roy Gains - Faire L'amour
TTITLE3=Roy Gains - Drop Down
TTITLE4=Roy Gains - As Be Around
TTITLE5=Roy Gains - Do You Want to Know What it is
EXTD=
EXTT0=
EXTT1=
EXTT2=
EXTT3=
EXTT4=
EXTT5=
PLAYORDER=
